<svg xmlns="http://www.w3.org/2000/svg" xmlns:xlink="http://www.w3.org/1999/xlink" width="1920" height="1076" viewBox="0 0 1920 1076">
  <defs>
    <linearGradient id="linear-gradient" x1="0.406" y1="0.949" x2="0.652" y2="-0.224" gradientUnits="objectBoundingBox">
      <stop offset="0" stop-color="#0c042e"/>
      <stop offset="0.33" stop-color="#221c3a"/>
      <stop offset="1" stop-color="#575757"/>
    </linearGradient>
    <clipPath id="clip-path">
      <rect id="Rectangle_8" data-name="Rectangle 8" width="1920" height="1076" fill="url(#linear-gradient)"/>
    </clipPath>
    <linearGradient id="linear-gradient-3" x1="0.381" y1="0.121" x2="0.677" y2="0.922" gradientUnits="objectBoundingBox">
      <stop offset="0"/>
      <stop offset="0.23" stop-color="#050505"/>
      <stop offset="0.49" stop-color="#131313"/>
      <stop offset="0.77" stop-color="#292929"/>
      <stop offset="1" stop-color="#424242"/>
    </linearGradient>
    <linearGradient id="linear-gradient-4" x1="0.497" y1="1.367" x2="0.809" y2="2.034" xlink:href="#linear-gradient"/>
    <linearGradient id="linear-gradient-5" x1="0.379" y1="0.422" x2="0.675" y2="0.889" xlink:href="#linear-gradient"/>
    <linearGradient id="linear-gradient-6" x1="0.47" y1="0.35" x2="0.705" y2="0.78" gradientUnits="objectBoundingBox">
      <stop offset="0" stop-color="#d100b9"/>
      <stop offset="0.27" stop-color="#ac00b9"/>
      <stop offset="0.77" stop-color="#6f00b9"/>
      <stop offset="1" stop-color="#5700b9"/>
    </linearGradient>
    <linearGradient id="linear-gradient-7" x1="0.461" y1="0.499" x2="0.136" y2="1.019" xlink:href="#linear-gradient"/>
    <linearGradient id="linear-gradient-8" x1="0.953" y1="0.559" x2="0.746" y2="0.23" xlink:href="#linear-gradient-6"/>
  </defs>
  <g id="contact_bg" transform="translate(-128.24 -79.51)">
    <g id="Layer_2" data-name="Layer 2" transform="translate(128.24 79.51)">
      <g id="Layer_1" data-name="Layer 1">
        <rect id="Rectangle_7" data-name="Rectangle 7" width="1920" height="1076" fill="url(#linear-gradient)"/>
        <g id="Group_3" data-name="Group 3" clip-path="url(#clip-path)">
          <path id="Path_1" data-name="Path 1" d="M143.782,345.6C245.4,188.683,394.038,160.923,574.756,166.752c154.544,5.006,322.051,43.414,463.959-9.266S1277.443,9.05,1430.551,16.186c205.5,9.6,295.877,158.934,285.292,304.53-14.687,201.75-205.908,302.625-397.005,289.81-158.113-10.648-325.62-25.107-465.6,67.026-128.9,84.884-214.154,272.064-394.626,276.061C253.895,958.023-44.157,636.119,143.782,345.6Z" transform="translate(-265.095 -253.803)" opacity="0.5" fill="url(#linear-gradient-3)"/>
          <path id="Path_2" data-name="Path 2" d="M19.146,566.916c56.862-166.182,188.718-221.4,357.826-251.851,144.82-26.153,309.744-23.612,429.046-100.875S992.233,28.916,1136.438,5.154C1329.792-26.715,1449.5,94.149,1474.53,231.637c34.708,190.542-118.974,322.314-299.487,348.28-149.579,21.483-308.718,41.321-416.78,154.75C658.735,839.279,624.315,1030.082,457.5,1069.685,268.171,1114.48-86.126,874.249,19.146,566.916Z" transform="translate(-526.14 -297.057)" fill="url(#linear-gradient-4)"/>
          <path id="Path_3" data-name="Path 3" d="M1479.08,680.626c-94.113,103.677-270.769,72.667-406.154,116.828-155.9,50.886-280.739,136.854-436.062,204.552-150.728,65.681-403.9-44.31-229.046-273.371C476.7,638.407,542.1,573.549,587.8,466.21c50.913-119.556,84.185-227.23,213.867-282.6C1129.3,43.806,1736.8,396.569,1479.08,680.626Z" transform="translate(555.3 118.865)" fill="url(#linear-gradient-5)"/>
          <path id="Path_4" data-name="Path 4" d="M625.139,321.691C705.1,249.435,614.021,178.038,510.718,262.7,440.236,320.383,402.862,406.09,343.169,469.081,288.2,527.1,220.339,502.07,150.718,525.459,1.918,575.41,273.8,753.959,399.785,693.247c88.246-42.554,75.323-157.44,96.944-224.951C519.785,396.264,571.436,370.3,625.139,321.691Z" transform="translate(-193.016 316.586)" fill="url(#linear-gradient-6)"/>
          <path id="Path_5" data-name="Path 5" d="M453.229,294.884c75.939-81.9,216.41-55.78,324.595-89.928C902.5,165.615,1002.808,98.1,1127.2,45.387,1247.936-5.8,1448.634,83.831,1307.136,265.033c-55.713,71.322-108.431,122.507-145.887,207.69-41.682,94.822-69.21,180.379-173.087,223.494C725.926,805.05,245.188,519.2,453.229,294.884Z" transform="translate(722.32 -211.905)" fill="url(#linear-gradient-7)"/>
          <path id="Path_6" data-name="Path 6" d="M1284.557,329.755c13.7-61.384,72.164-90.451,80.369-155.161,17.928-140.889-137.272-216.694-208.7-109.02-36.472,54.585-50.093,122.881-93.539,172.87-44.062,50.736-110.769,57.91-165.169,94.486-100.185,67.25-129.19,191.476-250.667,242.137-280.246,116.791-268.8,267.506-63.672,274.9,171.651,6.2,218.133-202.535,438.523-199.546C1380.147,655.32,1254.855,463.134,1284.557,329.755Z" transform="translate(815.668 -256.938)" fill="url(#linear-gradient-8)"/>
          <g id="Group_1" data-name="Group 1" transform="translate(562.77 193.217)">
            <path id="Path_7" data-name="Path 7" d="M437.989,1134.8h-4.431c-97.723-1.494-158.646-27.161-167.138-70.426-6.728-34.26,20.513-77.039,76.636-120.415C405.168,895.91,500.348,848.5,618.173,806.841c99.856-35.269,171.2-98.6,240.205-159.831,53.333-47.3,108.472-96.2,176.41-131.847,33.436-17.56,67.938-29.889,101.333-41.807C1189,454.676,1238.891,436.7,1285,399.867c42.708-34.111,75.651-75.731,107.569-115.819,24.205-30.561,49.231-62.169,78.441-90.451,72.9-70.5,153.272-73.975,200.574-46.141,42.134,24.77,72.862,82.717,32.821,171.039-18.42,40.574-51.9,70.164-84.308,98.783-28.964,25.63-58.954,52.081-77.949,86.379l-.9-.411.9.411c-21.375,38.37-32.328,81.26-42.913,122.769-16.41,64.336-33.4,130.764-90.257,179.931-63.344,54.809-171.2,81.9-329.682,82.755-150.81.859-258.462,69.006-362.913,134.911C626.173,1080.923,540.881,1134.8,437.989,1134.8ZM1608,132.959c-41.313,0-89.887,17.6-135.385,61.8-29.128,28.17-54.113,59.778-78.318,90.227-31.959,40.35-64.985,82.194-107.856,116.305-46.359,37.025-96.451,54.921-149.456,73.826-33.354,11.881-67.774,24.173-101.087,41.658-67.651,35.53-122.708,84.361-175.918,131.586C790.809,709.74,719.3,773.179,619.076,808.6c-117.62,41.583-212.554,88.882-274.544,136.779-55.549,42.928-82.544,85.071-75.938,118.659,8.205,42.33,68.513,67.437,165.169,68.894h4.39c102.277,0,187.282-53.725,277.21-110.589,104.533-66.054,212.677-134.5,364.1-135.247,157.908-.859,265.313-27.759,328.205-82.194,56.246-48.569,73.149-114.96,89.477-179.034,10.626-41.583,21.58-84.586,43.118-123.292,19.241-34.6,49.231-61.16,78.441-86.9,32.246-28.469,65.641-57.947,83.815-98.148,39.59-87.276,9.436-144.4-32-168.76a123.009,123.009,0,0,0-62.523-15.8Z" transform="translate(-265.415 -131.226)" fill="#fff"/>
          </g>
          <g id="Group_2" data-name="Group 2" transform="translate(-131.5 -280.473)">
            <path id="Path_8" data-name="Path 8" d="M244.262,1062.472h-8c-54.318-1.681-99.036-21.146-122.626-53.352-34.585-47.262-22.81-124.786,81.436-191.513l.615.785-.615-.785c34.667-22.3,68.554-41.434,101.374-60.114C405.328,695.287,499.318,641.674,566.067,516.7c22.113-41.359,39.631-91.759,58.215-145.111C674.046,228.8,730.415,66.91,897.841,16.66c162.3-48.607,378.3,55.705,510.4,173.206,101.128,90.078,149.169,180.865,128.451,242.847-13.333,39.976-53.908,65.98-120.533,77.263-64.369,10.909-125.292,6.576-184.205,2.354-102.564-7.285-199.3-14.2-298.544,60.376-71.467,53.651-136.656,119.556-199.754,183.48C645.7,845.18,554.744,937.237,442.374,1001.872,373.164,1041.437,304.938,1062.472,244.262,1062.472ZM985.923,6.31a305.1,305.1,0,0,0-87.631,12.142C731.851,68.255,675.646,229.618,626.046,372c-18.585,53.426-36.185,103.9-58.339,145.372-66.995,125.384-161.231,179.333-270.359,241.54-32.821,18.681-66.462,37.959-101.087,60.114-103.138,66.017-114.872,142.458-80.9,188.935,46.031,62.841,172.677,80.4,325.744-7.659,112.082-64.523,202.954-156.468,290.831-245.35,63.138-63.888,128.41-129.942,199.959-183.7,99.9-75.058,196.923-68.109,299.979-60.749,58.79,4.184,119.59,8.518,183.713-2.354,65.641-11.208,105.846-36.726,118.974-75.955,20.144-60.413-28.718-152.732-127.918-240.979C1297.8,94.258,1131.646,6.31,985.923,6.31Z" transform="translate(-96.187 -4.439)" fill="#fff"/>
          </g>
        </g>
      </g>
    </g>
  </g>
</svg>
